<?xml version="1.0" standalone="no"?>
<!DOCTYPE svg PUBLIC "-//W3C//DTD SVG 20010904//EN"
 "http://www.w3.org/TR/2001/REC-SVG-20010904/DTD/svg10.dtd">
<svg version="1.0" xmlns="http://www.w3.org/2000/svg"
 width="144.000000pt" height="144.000000pt" viewBox="0 0 144.000000 144.000000"
 preserveAspectRatio="xMidYMid meet">
<metadata>
Created by potrace 1.11, written by Peter Selinger 2001-2013
</metadata>
<g transform="translate(0.000000,144.000000) scale(0.100000,-0.100000)"
fill="#000000" stroke="none">
<path d="M688 1395 c-13 -19 -27 -35 -31 -35 -5 0 -22 14 -38 31 -34 36 -51
30 -69 -27 l-12 -34 -43 26 c-43 25 -44 25 -54 5 -6 -11 -11 -28 -11 -38 0
-32 -19 -43 -48 -27 -15 8 -35 14 -44 14 -19 0 -21 -6 -20 -55 1 -36 -12 -45
-50 -34 -46 13 -60 3 -52 -40 4 -20 7 -40 8 -46 0 -5 -18 -10 -41 -10 -23 -1
-46 -4 -50 -8 -4 -4 0 -28 9 -52 18 -49 18 -49 -45 -59 -37 -5 -40 -23 -13
-59 l27 -35 -23 -16 c-12 -9 -28 -16 -34 -16 -6 0 -17 -6 -23 -14 -10 -12 -6
-20 18 -44 17 -16 31 -33 31 -38 0 -5 -16 -19 -35 -32 -19 -12 -35 -27 -35
-32 0 -5 16 -20 35 -32 19 -13 35 -28 35 -33 0 -6 -14 -23 -31 -38 -26 -22
-29 -30 -19 -42 7 -8 18 -15 24 -15 6 0 22 -7 34 -16 l23 -16 -26 -34 c-30
-39 -24 -58 21 -62 44 -3 55 -18 37 -52 -24 -49 -15 -65 34 -62 49 3 56 -4 43
-47 -13 -48 -4 -63 34 -55 57 13 61 11 62 -26 1 -19 2 -41 3 -47 1 -15 47 -17
56 -3 3 6 17 10 31 10 20 0 24 -5 24 -28 0 -16 6 -37 14 -47 13 -17 15 -17 48
9 38 28 48 25 62 -21 13 -43 32 -47 64 -14 16 17 33 31 38 31 5 0 19 -16 32
-35 12 -19 27 -35 32 -35 5 0 20 16 32 35 28 43 41 44 68 5 18 -25 25 -28 41
-20 10 6 19 16 19 23 0 7 7 22 15 34 l15 22 37 -25 c35 -24 38 -24 50 -8 7 10
13 27 13 39 0 34 18 45 48 29 15 -8 35 -14 45 -14 18 0 18 2 21 60 1 33 3 35
31 31 76 -10 74 -12 64 64 -4 29 -3 30 40 30 53 1 59 11 37 65 -17 43 -16 44
47 54 37 5 41 24 13 60 l-26 35 22 15 c13 7 33 17 46 21 29 9 28 19 -8 53 -16
16 -30 33 -30 38 0 5 16 19 35 32 19 12 35 27 35 32 0 5 -16 20 -35 32 -19 13
-35 28 -35 33 0 6 14 23 31 38 26 22 29 30 19 42 -7 8 -18 15 -24 15 -6 0 -22
7 -34 16 l-23 16 27 35 c26 34 26 36 9 49 -10 8 -29 14 -41 14 -33 0 -45 20
-29 50 8 14 14 33 15 43 0 17 -6 20 -50 19 -45 -1 -49 3 -39 49 12 53 3 62
-49 50 -39 -8 -43 -7 -48 14 -3 12 -5 29 -4 36 6 42 -14 50 -60 24 -30 -16
-50 -4 -50 29 0 12 -6 31 -14 41 -13 19 -15 18 -49 -8 -37 -28 -48 -25 -61 20
-13 42 -31 46 -64 13 -17 -16 -34 -30 -39 -30 -4 0 -18 16 -31 35 -12 19 -27
35 -32 35 -5 0 -20 -16 -32 -35z m68 -121 c13 -51 -44 -72 -73 -27 -13 19 -12
24 6 42 25 25 59 17 67 -15z m-42 -114 c12 0 38 16 59 36 33 33 41 36 75 31
95 -16 236 -113 297 -205 l26 -39 -26 -59 c-14 -32 -24 -68 -21 -79 3 -12 27
-30 58 -45 51 -24 53 -27 56 -67 2 -30 -1 -43 -10 -44 -7 -1 -17 -2 -23 -4 -5
-1 -15 -3 -22 -3 -6 -1 -9 -10 -6 -20 7 -30 -14 -71 -42 -78 -49 -12 -74 2
-86 53 -7 25 -26 61 -42 80 l-31 35 32 25 c97 76 86 196 -25 265 -37 23 -43
23 -340 26 -167 2 -303 6 -303 10 1 11 101 87 140 107 19 10 59 26 89 35 l54
17 35 -38 c19 -23 44 -39 56 -39z m-464 -260 c15 -28 -4 -60 -36 -60 -31 0
-54 41 -34 65 18 21 57 19 70 -5z m113 11 c4 -1 7 -75 7 -166 l0 -165 -74 0
c-87 0 -85 -2 -93 116 l-6 80 59 30 c61 30 65 38 49 90 -7 21 0 23 58 15z
m889 -8 c11 -13 13 -25 7 -40 -14 -37 -79 -28 -79 11 0 44 44 61 72 29z m-434
-9 c29 -20 26 -54 -6 -70 -12 -6 -64 -10 -115 -10 l-92 1 -2 48 -2 47 97 0
c73 0 103 -4 120 -16z m-29 -243 c11 -11 25 -38 30 -60 6 -23 16 -59 21 -81 6
-22 21 -52 34 -67 23 -26 26 -27 140 -27 64 -1 116 -3 116 -6 -1 -3 -9 -15
-20 -28 -17 -21 -22 -22 -65 -12 -69 15 -82 8 -95 -55 -12 -59 -19 -66 -70
-84 -107 -37 -251 -31 -362 14 -11 4 -21 27 -28 60 -15 71 -28 81 -91 69 -44
-10 -51 -8 -69 11 -11 12 -20 24 -20 26 0 3 93 5 206 4 129 0 208 3 213 10 4
5 7 39 5 75 -2 85 -1 82 -21 79 -10 -1 -39 -1 -65 0 l-48 1 0 45 0 45 85 0
c71 0 88 -3 104 -19z m-363 -329 c24 -15 26 -50 3 -66 -41 -28 -87 18 -54 54
19 21 33 24 51 12z m642 -34 c2 -14 -4 -31 -13 -38 -24 -20 -65 2 -65 34 0 50
72 54 78 4z"/>
</g>
</svg>
